<svg width="17" height="17" viewBox="0 0 17 17" fill="none" xmlns="http://www.w3.org/2000/svg">
<path d="M6.93687 0.787642C8.50034 0.541334 10.0986 0.804804 11.4971 1.53392L11.7736 1.68593L11.8313 1.72262C12.1073 1.92134 12.1935 2.30094 12.02 2.60191C11.8463 2.90285 11.4745 3.01848 11.1643 2.87906L11.1033 2.84761L10.8766 2.72378C9.7325 2.12731 8.425 1.91166 7.14594 2.11312C5.78161 2.32807 4.53197 3.00435 3.60583 4.02894C2.67971 5.05358 2.13271 6.36492 2.05627 7.74392C1.97987 9.12302 2.37857 10.487 3.18585 11.6077C3.99312 12.7283 5.16047 13.5385 6.49267 13.9029C7.82485 14.2672 9.24192 14.1638 10.5071 13.61C11.7724 13.0561 12.8097 12.0848 13.4457 10.8588C14.042 9.70941 14.2518 8.4009 14.0485 7.12673L14.002 6.87252L13.9922 6.80442C13.9584 6.46616 14.1853 6.15048 14.5255 6.08104C14.866 6.01167 15.1988 6.21357 15.2999 6.53838L15.317 6.60456L15.3733 6.91512C15.6219 8.47262 15.3651 10.0718 14.6362 11.4766C13.8588 12.9751 12.5915 14.1622 11.045 14.8391C9.49875 15.516 7.76708 15.6421 6.13886 15.1969C4.51057 14.7516 3.08357 13.7617 2.0969 12.392C1.11024 11.0222 0.623017 9.35543 0.716381 7.66992C0.809775 5.98438 1.47862 4.38171 2.61058 3.12935C3.74253 1.87706 5.26941 1.05036 6.93687 0.787642Z" fill="#258CF4"/>
<path d="M14.3817 2.18081C14.6452 1.96588 15.0337 1.98104 15.2793 2.22668C15.525 2.47232 15.5402 2.86079 15.3252 3.12431L15.2793 3.17541L8.57001 9.88469C8.32438 10.1303 7.93592 10.1455 7.67244 9.93058L7.62132 9.88469L5.60851 7.8719L5.56265 7.82084C5.34772 7.5573 5.36287 7.16883 5.60851 6.92321C5.85415 6.67755 6.24262 6.66239 6.50614 6.87732L6.55725 6.92321L8.09566 8.46158L14.3306 2.22668L14.3817 2.18081Z" fill="#258CF4"/>
</svg>
