<svg width="1200" height="720" viewBox="0 0 1200 720" fill="none" xmlns="http://www.w3.org/2000/svg">
  <rect width="1200" height="720" rx="48" fill="url(#bg)"/>
  <circle cx="1036" cy="126" r="200" fill="url(#orb1)"/>
  <circle cx="176" cy="590" r="230" fill="url(#orb2)"/>
  <rect x="72" y="74" width="162" height="48" rx="24" fill="rgba(255,255,255,0.2)"/>
  <text x="110" y="106" fill="#0F172A" font-family="Arial, sans-serif" font-size="22" font-weight="700" letter-spacing="0.22em">CAREER</text>
  <text x="72" y="226" fill="#0F172A" font-family="Arial, sans-serif" font-size="66" font-weight="700">Career narrative</text>
  <text x="72" y="304" fill="#0F172A" font-family="Arial, sans-serif" font-size="66" font-weight="700">lab</text>
  <text x="72" y="374" fill="#334155" font-family="Arial, sans-serif" font-size="28" font-weight="500">Turn scattered experience into a story that recruiters can follow in seconds.</text>
  <g filter="url(#shadow)">
    <rect x="722" y="116" width="388" height="486" rx="42" fill="rgba(255,255,255,0.7)"/>
  </g>
  <rect x="778" y="170" width="278" height="90" rx="26" fill="#FFFFFF"/>
  <circle cx="838" cy="215" r="24" fill="#FDBA74"/>
  <rect x="878" y="194" width="126" height="18" rx="9" fill="#0F172A" fill-opacity="0.16"/>
  <rect x="878" y="226" width="92" height="14" rx="7" fill="#0F172A" fill-opacity="0.12"/>
  <rect x="778" y="294" width="278" height="100" rx="26" fill="#FFFFFF"/>
  <rect x="778" y="428" width="278" height="120" rx="26" fill="#FFFFFF"/>
  <rect x="824" y="330" width="188" height="14" rx="7" fill="#FB7185" fill-opacity="0.28"/>
  <rect x="824" y="356" width="154" height="14" rx="7" fill="#FB7185" fill-opacity="0.18"/>
  <rect x="824" y="464" width="188" height="14" rx="7" fill="#60A5FA" fill-opacity="0.28"/>
  <rect x="824" y="490" width="140" height="14" rx="7" fill="#60A5FA" fill-opacity="0.18"/>
  <rect x="824" y="516" width="172" height="14" rx="7" fill="#60A5FA" fill-opacity="0.14"/>
  <defs>
    <linearGradient id="bg" x1="0" y1="0" x2="1200" y2="720" gradientUnits="userSpaceOnUse">
      <stop stop-color="#FFF1F2"/>
      <stop offset="0.45" stop-color="#FFE4E6"/>
      <stop offset="1" stop-color="#DBEAFE"/>
    </linearGradient>
    <radialGradient id="orb1" cx="0" cy="0" r="1" gradientUnits="userSpaceOnUse" gradientTransform="translate(1036 126) rotate(90) scale(200)">
      <stop stop-color="#F9A8D4" stop-opacity="0.8"/>
      <stop offset="1" stop-color="#F9A8D4" stop-opacity="0"/>
    </radialGradient>
    <radialGradient id="orb2" cx="0" cy="0" r="1" gradientUnits="userSpaceOnUse" gradientTransform="translate(176 590) rotate(90) scale(230)">
      <stop stop-color="#93C5FD" stop-opacity="0.74"/>
      <stop offset="1" stop-color="#93C5FD" stop-opacity="0"/>
    </radialGradient>
    <filter id="shadow" x="696" y="96" width="440" height="534" filterUnits="userSpaceOnUse" color-interpolation-filters="sRGB">
      <feFlood flood-opacity="0" result="BackgroundImageFix"/>
      <feColorMatrix in="SourceAlpha" type="matrix" values="0 0 0 0 0 0 0 0 0 0 0 0 0 0 0 0 0 0 127 0" result="hardAlpha"/>
      <feOffset dy="8"/>
      <feGaussianBlur stdDeviation="13"/>
      <feComposite in2="hardAlpha" operator="out"/>
      <feColorMatrix type="matrix" values="0 0 0 0 0.0588235 0 0 0 0 0.0901961 0 0 0 0 0.164706 0 0 0 0.14 0"/>
      <feBlend mode="normal" in2="BackgroundImageFix" result="effect1_dropShadow_0_0"/>
      <feBlend mode="normal" in="SourceGraphic" in2="effect1_dropShadow_0_0" result="shape"/>
    </filter>
  </defs>
</svg>
