<svg width="1200" height="720" viewBox="0 0 1200 720" fill="none" xmlns="http://www.w3.org/2000/svg">
  <rect width="1200" height="720" rx="48" fill="url(#bg)"/>
  <circle cx="962" cy="150" r="220" fill="url(#orb1)"/>
  <circle cx="190" cy="610" r="190" fill="url(#orb2)"/>
  <rect x="72" y="74" width="124" height="48" rx="24" fill="rgba(255,255,255,0.18)"/>
  <text x="110" y="106" fill="#E0F2FE" font-family="Arial, sans-serif" font-size="22" font-weight="700" letter-spacing="0.22em">DATA</text>
  <text x="72" y="228" fill="#F8FAFC" font-family="Arial, sans-serif" font-size="66" font-weight="700">Data literacy for</text>
  <text x="72" y="306" fill="#F8FAFC" font-family="Arial, sans-serif" font-size="66" font-weight="700">product roles</text>
  <text x="72" y="374" fill="#D6F7FF" font-family="Arial, sans-serif" font-size="28" font-weight="500">Translate metrics, experiments, and impact into crisp decisions and stories.</text>
  <g filter="url(#shadow)">
    <rect x="744" y="122" width="374" height="468" rx="38" fill="rgba(10,37,64,0.36)"/>
  </g>
  <rect x="790" y="168" width="282" height="210" rx="28" fill="rgba(255,255,255,0.14)"/>
  <path d="M840 332L900 264L956 296L1020 228" stroke="#67E8F9" stroke-width="16" stroke-linecap="round" stroke-linejoin="round"/>
  <circle cx="840" cy="332" r="18" fill="#F8FAFC"/>
  <circle cx="900" cy="264" r="18" fill="#F8FAFC"/>
  <circle cx="956" cy="296" r="18" fill="#F8FAFC"/>
  <circle cx="1020" cy="228" r="18" fill="#F8FAFC"/>
  <rect x="790" y="420" width="72" height="112" rx="20" fill="#67E8F9"/>
  <rect x="882" y="362" width="72" height="170" rx="20" fill="#22D3EE"/>
  <rect x="974" y="284" width="72" height="248" rx="20" fill="#A7F3D0"/>
  <defs>
    <linearGradient id="bg" x1="0" y1="0" x2="1200" y2="720" gradientUnits="userSpaceOnUse">
      <stop stop-color="#0F172A"/>
      <stop offset="0.55" stop-color="#155E75"/>
      <stop offset="1" stop-color="#0EA5E9"/>
    </linearGradient>
    <radialGradient id="orb1" cx="0" cy="0" r="1" gradientUnits="userSpaceOnUse" gradientTransform="translate(962 150) rotate(90) scale(220)">
      <stop stop-color="#67E8F9" stop-opacity="0.72"/>
      <stop offset="1" stop-color="#67E8F9" stop-opacity="0"/>
    </radialGradient>
    <radialGradient id="orb2" cx="0" cy="0" r="1" gradientUnits="userSpaceOnUse" gradientTransform="translate(190 610) rotate(90) scale(190)">
      <stop stop-color="#22D3EE" stop-opacity="0.74"/>
      <stop offset="1" stop-color="#22D3EE" stop-opacity="0"/>
    </radialGradient>
    <filter id="shadow" x="716" y="102" width="430" height="516" filterUnits="userSpaceOnUse" color-interpolation-filters="sRGB">
      <feFlood flood-opacity="0" result="BackgroundImageFix"/>
      <feColorMatrix in="SourceAlpha" type="matrix" values="0 0 0 0 0 0 0 0 0 0 0 0 0 0 0 0 0 0 127 0" result="hardAlpha"/>
      <feOffset dy="8"/>
      <feGaussianBlur stdDeviation="14"/>
      <feComposite in2="hardAlpha" operator="out"/>
      <feColorMatrix type="matrix" values="0 0 0 0 0.0313726 0 0 0 0 0.0862745 0 0 0 0 0.172549 0 0 0 0.18 0"/>
      <feBlend mode="normal" in2="BackgroundImageFix" result="effect1_dropShadow_0_0"/>
      <feBlend mode="normal" in="SourceGraphic" in2="effect1_dropShadow_0_0" result="shape"/>
    </filter>
  </defs>
</svg>
