<svg width="1200" height="720" viewBox="0 0 1200 720" fill="none" xmlns="http://www.w3.org/2000/svg">
  <rect width="1200" height="720" rx="48" fill="url(#bg)"/>
  <circle cx="1052" cy="156" r="206" fill="url(#orb1)"/>
  <circle cx="122" cy="602" r="200" fill="url(#orb2)"/>
  <rect x="72" y="74" width="190" height="48" rx="24" fill="rgba(255,255,255,0.14)"/>
  <text x="110" y="106" fill="#CFFAFE" font-family="Arial, sans-serif" font-size="22" font-weight="700" letter-spacing="0.22em">ARCHITECTURE</text>
  <text x="72" y="228" fill="#F8FAFC" font-family="Arial, sans-serif" font-size="66" font-weight="700">System design</text>
  <text x="72" y="306" fill="#F8FAFC" font-family="Arial, sans-serif" font-size="66" font-weight="700">warm-up</text>
  <text x="72" y="376" fill="#D8F3FF" font-family="Arial, sans-serif" font-size="28" font-weight="500">APIs, caching, and scaling vocabulary before the deeper interview loop.</text>
  <g stroke="#E2F3FF" stroke-width="14" stroke-linecap="round">
    <path d="M760 232H956"/>
    <path d="M858 232V356"/>
    <path d="M760 356H956"/>
    <path d="M760 478H956"/>
  </g>
  <g fill="#FFFFFF">
    <rect x="694" y="188" width="132" height="88" rx="28"/>
    <rect x="890" y="188" width="132" height="88" rx="28"/>
    <rect x="792" y="312" width="132" height="88" rx="28"/>
    <rect x="694" y="434" width="132" height="88" rx="28"/>
    <rect x="890" y="434" width="132" height="88" rx="28"/>
  </g>
  <defs>
    <linearGradient id="bg" x1="0" y1="0" x2="1200" y2="720" gradientUnits="userSpaceOnUse">
      <stop stop-color="#020617"/>
      <stop offset="0.48" stop-color="#0F172A"/>
      <stop offset="1" stop-color="#0E7490"/>
    </linearGradient>
    <radialGradient id="orb1" cx="0" cy="0" r="1" gradientUnits="userSpaceOnUse" gradientTransform="translate(1052 156) rotate(90) scale(206)">
      <stop stop-color="#22D3EE" stop-opacity="0.72"/>
      <stop offset="1" stop-color="#22D3EE" stop-opacity="0"/>
    </radialGradient>
    <radialGradient id="orb2" cx="0" cy="0" r="1" gradientUnits="userSpaceOnUse" gradientTransform="translate(122 602) rotate(90) scale(200)">
      <stop stop-color="#38BDF8" stop-opacity="0.74"/>
      <stop offset="1" stop-color="#38BDF8" stop-opacity="0"/>
    </radialGradient>
  </defs>
</svg>
