<svg width="1200" height="720" viewBox="0 0 1200 720" fill="none" xmlns="http://www.w3.org/2000/svg">
  <rect width="1200" height="720" rx="48" fill="url(#bg)"/>
  <circle cx="110" cy="110" r="180" fill="url(#orb1)"/>
  <circle cx="980" cy="606" r="220" fill="url(#orb2)"/>
  <rect x="72" y="74" width="148" height="48" rx="24" fill="rgba(255,255,255,0.5)"/>
  <text x="110" y="106" fill="#0F172A" font-family="Arial, sans-serif" font-size="22" font-weight="700" letter-spacing="0.22em">DESIGN</text>
  <text x="72" y="222" fill="#0F172A" font-family="Arial, sans-serif" font-size="66" font-weight="700">UI craft &amp;</text>
  <text x="72" y="300" fill="#0F172A" font-family="Arial, sans-serif" font-size="66" font-weight="700">accessibility</text>
  <text x="72" y="368" fill="#334155" font-family="Arial, sans-serif" font-size="28" font-weight="500">Contrast, rhythm, and inclusive patterns that look thoughtful on screen.</text>
  <g filter="url(#shadow)">
    <rect x="748" y="108" width="360" height="504" rx="38" fill="rgba(255,255,255,0.74)"/>
  </g>
  <rect x="784" y="154" width="286" height="180" rx="24" fill="url(#panel)"/>
  <rect x="814" y="190" width="172" height="20" rx="10" fill="#1D4ED8" fill-opacity="0.18"/>
  <rect x="814" y="228" width="210" height="16" rx="8" fill="#FFFFFF" fill-opacity="0.7"/>
  <rect x="814" y="258" width="148" height="16" rx="8" fill="#FFFFFF" fill-opacity="0.58"/>
  <rect x="804" y="376" width="96" height="96" rx="28" fill="#FFFFFF"/>
  <rect x="930" y="376" width="96" height="96" rx="28" fill="#FFFFFF"/>
  <rect x="867" y="494" width="96" height="96" rx="28" fill="#FFFFFF"/>
  <circle cx="852" cy="424" r="20" fill="#38BDF8"/>
  <circle cx="978" cy="424" r="20" fill="#22C55E"/>
  <circle cx="915" cy="542" r="20" fill="#F59E0B"/>
  <defs>
    <linearGradient id="bg" x1="0" y1="0" x2="1200" y2="720" gradientUnits="userSpaceOnUse">
      <stop stop-color="#ECFEFF"/>
      <stop offset="0.45" stop-color="#DBEAFE"/>
      <stop offset="1" stop-color="#FEF3C7"/>
    </linearGradient>
    <radialGradient id="orb1" cx="0" cy="0" r="1" gradientUnits="userSpaceOnUse" gradientTransform="translate(110 110) rotate(90) scale(180)">
      <stop stop-color="#7DD3FC" stop-opacity="0.8"/>
      <stop offset="1" stop-color="#7DD3FC" stop-opacity="0"/>
    </radialGradient>
    <radialGradient id="orb2" cx="0" cy="0" r="1" gradientUnits="userSpaceOnUse" gradientTransform="translate(980 606) rotate(90) scale(220)">
      <stop stop-color="#86EFAC" stop-opacity="0.78"/>
      <stop offset="1" stop-color="#86EFAC" stop-opacity="0"/>
    </radialGradient>
    <linearGradient id="panel" x1="784" y1="154" x2="1070" y2="334" gradientUnits="userSpaceOnUse">
      <stop stop-color="#38BDF8"/>
      <stop offset="1" stop-color="#1D4ED8"/>
    </linearGradient>
    <filter id="shadow" x="724" y="88" width="408" height="552" filterUnits="userSpaceOnUse" color-interpolation-filters="sRGB">
      <feFlood flood-opacity="0" result="BackgroundImageFix"/>
      <feColorMatrix in="SourceAlpha" type="matrix" values="0 0 0 0 0 0 0 0 0 0 0 0 0 0 0 0 0 0 127 0" result="hardAlpha"/>
      <feOffset dy="6"/>
      <feGaussianBlur stdDeviation="12"/>
      <feComposite in2="hardAlpha" operator="out"/>
      <feColorMatrix type="matrix" values="0 0 0 0 0.0509804 0 0 0 0 0.133333 0 0 0 0 0.247059 0 0 0 0.16 0"/>
      <feBlend mode="normal" in2="BackgroundImageFix" result="effect1_dropShadow_0_0"/>
      <feBlend mode="normal" in="SourceGraphic" in2="effect1_dropShadow_0_0" result="shape"/>
    </filter>
  </defs>
</svg>
